<?xml version="1.0" encoding="utf-8"?><svg style="height:32rem;width:auto" xmlns="http://www.w3.org/2000/svg" focusable="false" viewBox="0 0 134 32" color="" aria-label="" aria-hidden="true" role="presentation" class="SvgIcon SvgIcon_color--black" > <path style="fill:#019DF4" d="M8.8,4.2c-2,0-5.8,1-7.5,7.9c-0.8,3.2-1,6.6-0.4,9.9c0.5,2.8,1.3,5.5,2.3,8.1 c0.2,0.5,0.5,1.1,0.9,1.5c0.7,0.8,1.8,1.1,2.8,0.7C7.6,32,8.3,31.3,8,29.6c-0.2-0.9-0.4-1.8-0.7-2.7c-0.8-2-1.3-4.2-1.6-6.3 c-0.1-2.4,0.8-2.7,1.5-2.8c1.1-0.2,1.9,0.9,2.8,2.3c1,1.7,2.7,4.7,4.1,7.1c1.5,2.7,4.3,4.3,7.4,4.2c3.8-0.2,6.7-1.6,8.1-6.1 c0.8-2.9,1.9-5.8,3-8.5c1.4-3,3.2-4.6,4.8-4.1c1.4,0.5,1.8,1.8,1.8,3.9c0,1.7-0.1,3.5-0.4,5.2c-0.1,0.7-0.1,1.4-0.1,2.2 c-0.1,1.2,0.7,2.3,1.9,2.5c1.4,0.1,2.7-0.9,3-2.3c0.2-0.6,0.3-1.3,0.4-1.9c0.4-2.6,0.5-5.2,0.3-7.8c-0.2-3.2-0.9-6.4-2.1-9.4 c-1.2-2.6-3-4.3-5.4-4.4c-2.6-0.2-5.6,1.6-7.2,4.9c-1.5,3.1-2.6,6.2-3.3,7.8c-0.5,1.5-1.8,2.6-3.4,2.8c-2,0.2-3.7-1.2-4.9-3.2 c-1.3-2.2-2.8-4.3-4.4-6.2C12.6,5.5,11.4,4.2,8.8,4.2" /> <path style="fill:#019DF4" className = "hidden-xs" d="M71.9,8.8v13.1h-1.8c-0.3,0-0.6-0.2-0.6-0.5c0-0.1,0-0.1,0-0.2v-8.6l-3.6,5.8h-1.6 c-0.2,0-0.3,0-0.5-0.1c-0.1-0.1-0.2-0.2-0.3-0.4l-3.4-5.2v9.1h-2.5V9.6c0-0.5,0.3-0.7,0.8-0.7h2l4.5,7l3.9-6.5 C69,9.2,69.1,9,69.3,8.9c0.2-0.1,0.4-0.1,0.6-0.1H71.9z" /> <path style="fill:#019DF4" className = "hidden-xs" d="M76.2,21.5c-0.7-0.4-1.3-1-1.7-1.7c-0.8-1.6-0.8-3.4,0-5c0.4-0.7,1-1.3,1.7-1.7 c1.6-0.8,3.5-0.8,5.1,0c0.7,0.4,1.3,1,1.7,1.7c0.8,1.6,0.8,3.4,0,5c-0.4,0.7-1,1.3-1.7,1.7C79.7,22.3,77.8,22.3,76.2,21.5 M80.3,19.4c0.8-1.3,0.8-2.8,0-4.1c-0.8-0.9-2.1-1-3-0.2c-0.1,0.1-0.2,0.1-0.2,0.2c-0.8,1.3-0.8,2.8,0,4.1c0.7,0.9,2.1,1,3,0.3 C80.2,19.5,80.3,19.5,80.3,19.4" /> <path style="fill:#019DF4" className = "hidden-xs" d="M91.8,12.7h2.7l-4,9.2h-1.8c-0.2,0-0.3,0-0.5-0.1c-0.1-0.1-0.2-0.2-0.3-0.4l-3.4-8 c0-0.1-0.1-0.2-0.1-0.3c0-0.1,0-0.2,0.1-0.3c0.1-0.1,0.3-0.1,0.4-0.1h2l2.4,6.4L91.8,12.7z" /> <path style="fill:#019DF4" className = "hidden-xs" d="M96.3,10.9c-0.2-0.1-0.4-0.3-0.6-0.5c-0.1-0.2-0.2-0.5-0.2-0.8c0-0.3,0.1-0.5,0.2-0.8 c0.1-0.2,0.3-0.4,0.6-0.5c0.5-0.3,1.1-0.3,1.5,0c0.5,0.3,0.8,0.8,0.8,1.3c0,0.3-0.1,0.5-0.2,0.8c-0.1,0.2-0.3,0.4-0.6,0.6 C97.4,11.1,96.8,11.1,96.3,10.9 M95.8,13.3c0-0.3,0.2-0.6,0.5-0.6c0.1,0,0.1,0,0.2,0h2v9.2h-2.6V13.3z" /> <path style="fill:#019DF4" className = "hidden-xs" d="M102.3,22c-0.4,0-0.8-0.1-1.2-0.2c-0.2,0-0.4-0.1-0.5-0.3c-0.1-0.1-0.1-0.3-0.1-0.4v-1.3 c0.5,0.1,1.1,0.3,1.6,0.3c0.5,0.1,1,0.1,1.6,0.1c0.5,0,0.9-0.1,1.4-0.3c0.3-0.1,0.4-0.4,0.4-0.7c0-0.2-0.1-0.3-0.2-0.5 c-0.1-0.1-0.3-0.2-0.5-0.3c-0.2-0.1-0.5-0.1-0.8-0.2l-0.9-0.2c-0.8-0.1-1.5-0.5-2.1-1c-0.5-0.5-0.8-1.1-0.7-1.8c0-0.8,0.4-1.6,1.1-2 c0.9-0.5,2-0.7,3.1-0.7c0.4,0,0.9,0,1.3,0.1c0.4,0,0.7,0.1,1.1,0.2c0.2,0,0.3,0.1,0.5,0.2c0.1,0.1,0.1,0.3,0.1,0.5v1.2 c-1-0.2-2-0.4-3-0.4c-1.1,0-1.6,0.3-1.6,0.8c0,0.2,0.2,0.5,0.4,0.6c0.4,0.2,0.7,0.3,1.1,0.4l1,0.3c0.5,0.1,0.9,0.3,1.4,0.5 c0.4,0.2,0.7,0.5,0.9,0.8c0.7,1.2,0.4,2.8-0.7,3.7c-0.9,0.6-2,0.8-3.1,0.8C103.3,22.1,102.8,22.1,102.3,22" /> <path style="fill:#019DF4" className = "hidden-xs" d="M111.9,21.8c-0.5-0.2-0.9-0.6-1.2-1c-0.3-0.5-0.4-1-0.4-1.6v-4.6h-1.9v-1.2 c0-0.3,0.2-0.6,0.5-0.6c0.1,0,0.1,0,0.2,0h1.3V10c0-0.2,0-0.4,0.2-0.5c0.1-0.1,0.3-0.2,0.5-0.2h2v3.3h2.5v1.8H113v4.2 c0,0.4,0.1,0.8,0.3,1.1c0.3,0.3,0.7,0.4,1.1,0.4c0.5,0,1-0.1,1.5-0.2v1.2c0,0.1,0,0.3-0.1,0.4c-0.1,0.1-0.3,0.2-0.4,0.3 c-0.2,0.1-0.5,0.2-0.7,0.2c-0.3,0-0.6,0.1-1,0.1C113.1,22.1,112.5,22,111.9,21.8" /> <path style="fill:#019DF4" className = "hidden-xs" d="M126.7,20.2c0.1,0,0.2,0,0.3-0.1v1.2c0,0.1,0,0.3-0.1,0.4c-0.1,0.1-0.2,0.2-0.4,0.3 c-0.3,0.1-0.7,0.1-1,0.1c-1,0.1-2-0.5-2.3-1.5c-0.3,0.5-0.8,0.9-1.3,1.1c-0.6,0.3-1.2,0.4-1.8,0.4c-0.6,0-1.2-0.1-1.7-0.4 c-0.5-0.2-0.9-0.6-1.1-1.1c-0.3-0.5-0.4-1-0.4-1.5c0-0.9,0.5-1.8,1.3-2.2c1.2-0.6,2.5-0.8,3.8-0.7l1,0c0-0.3-0.1-0.7-0.2-1 c-0.2-0.3-0.4-0.5-0.7-0.6c-0.4-0.1-0.9-0.2-1.3-0.2c-0.5,0-1,0-1.5,0.1c-0.5,0.1-1,0.2-1.5,0.3v-1.3c0-0.2,0-0.3,0.1-0.5 c0.1-0.1,0.3-0.2,0.4-0.3c0.4-0.1,0.9-0.2,1.3-0.3c0.5-0.1,1.1-0.1,1.6-0.1c1.2-0.1,2.4,0.2,3.4,0.9c0.7,0.6,1.1,1.6,1,2.5v3.3 c0,0.3,0,0.5,0.2,0.7c0.2,0.2,0.4,0.2,0.6,0.2C126.5,20.2,126.6,20.2,126.7,20.2 M122,20.1c0.3-0.2,0.6-0.4,0.7-0.7 c0.2-0.3,0.3-0.7,0.3-1v-0.7h-0.5c-0.8,0-1.6,0.1-2.3,0.3c-0.5,0.1-0.8,0.6-0.7,1c0,0.3,0.1,0.7,0.4,0.9c0.3,0.3,0.7,0.4,1.1,0.4 C121.3,20.3,121.7,20.3,122,20.1" /> <path style="fill:#019DF4" className = "hidden-xs" d="M134.5,13.1v1.8h-0.9c-0.7-0.1-1.4,0.2-1.9,0.6c-0.5,0.5-0.7,1.2-0.6,1.9v4.5h-2.6v-8.6 c0-0.3,0.2-0.6,0.5-0.6c0.1,0,0.1,0,0.2,0h1.8l0,1.9c0.2-0.6,0.6-1.2,1.2-1.6c0.5-0.4,1.2-0.6,1.8-0.6 C134.3,12.5,134.5,12.7,134.5,13.1" /> </svg>