<?xml version="1.0" encoding="UTF-8"?>
<svg xmlns="http://www.w3.org/2000/svg" xmlns:xlink="http://www.w3.org/1999/xlink" width="400px" height="300px" viewBox="0 0 200 150" version="1.1">
<g id="surface1">
<path style=" stroke:none;fill-rule:nonzero;fill:rgb(100%,100%,100%);fill-opacity:1;" d="M 137.070312 96.902344 L 138.449219 96.902344 L 138.449219 96.3125 L 134.960938 96.3125 L 134.960938 96.902344 L 136.339844 96.902344 L 136.339844 100.71875 L 137.070312 100.71875 Z M 137.070312 96.902344 "/>
<path style=" stroke:none;fill-rule:nonzero;fill:rgb(100%,100%,100%);fill-opacity:1;" d="M 143.46875 100.71875 L 144.195312 100.71875 L 144.195312 96.324219 L 143.082031 96.324219 L 141.789062 99.671875 L 140.472656 96.324219 L 139.351562 96.324219 L 139.351562 100.71875 L 140.078125 100.71875 L 140.078125 97.039062 L 140.097656 97.039062 L 141.542969 100.71875 L 142 100.71875 L 143.445312 97.039062 L 143.46875 97.039062 Z M 143.46875 100.71875 "/>
<path style=" stroke:none;fill-rule:evenodd;fill:rgb(100%,100%,100%);fill-opacity:1;" d="M 124.714844 108.035156 C 124.714844 112.421875 127.058594 114.949219 130.992188 114.949219 C 133.734375 114.949219 135.769531 113.953125 136.902344 112.066406 L 134.328125 110.640625 C 133.507812 111.796875 132.632812 112.332031 131.304688 112.332031 C 129.238281 112.332031 128.191406 111.058594 128.164062 108.53125 L 137.042969 108.53125 C 137.042969 108.425781 137.050781 108.316406 137.054688 108.203125 C 137.0625 108.089844 137.070312 107.972656 137.070312 107.855469 C 137.070312 103.519531 134.789062 101.070312 130.933594 101.070312 C 127.082031 101.070312 124.714844 103.648438 124.714844 108.035156 Z M 130.933594 103.441406 C 132.609375 103.441406 133.621094 104.488281 133.621094 106.273438 L 128.230469 106.273438 C 128.363281 104.457031 129.351562 103.441406 130.933594 103.441406 Z M 130.933594 103.441406 "/>
<path style=" stroke:none;fill-rule:evenodd;fill:rgb(100%,100%,100%);fill-opacity:1;" d="M 122.597656 101.324219 L 122.597656 113.949219 C 122.597656 116.183594 122.429688 119.847656 116.070312 119.890625 C 113.453125 119.890625 111.019531 118.859375 110.535156 116.566406 L 114 116.007812 C 114.144531 116.664062 114.542969 117.320312 116.507812 117.320312 C 118.328125 117.320312 119.210938 116.449219 119.210938 114.363281 L 119.210938 112.8125 L 119.164062 112.765625 C 118.605469 113.757812 117.757812 114.703125 115.71875 114.703125 C 112.613281 114.703125 110.164062 112.546875 110.164062 108.039062 C 110.164062 103.582031 112.6875 101.085938 115.523438 101.082031 C 118.085938 101.082031 119.097656 102.203125 119.371094 102.855469 L 119.644531 101.332031 Z M 116.339844 111.84375 C 119.003906 111.824219 119.226562 109.117188 119.226562 107.347656 C 119.226562 105.261719 118.210938 103.566406 116.316406 103.566406 C 115.054688 103.566406 113.648438 104.484375 113.648438 107.492188 C 113.648438 109.140625 113.761719 111.863281 116.339844 111.84375 Z M 116.339844 111.84375 "/>
<path style=" stroke:none;fill-rule:nonzero;fill:rgb(100%,100%,100%);fill-opacity:1;" d="M 95.785156 101.726562 L 98.691406 101.324219 L 99.007812 102.90625 C 100.648438 101.707031 101.949219 101.070312 103.589844 101.070312 C 106.332031 101.070312 107.746094 102.527344 107.746094 105.410156 L 107.746094 114.695312 L 104.242188 114.695312 L 104.242188 106.019531 C 104.242188 104.386719 103.816406 103.65625 102.550781 103.65625 C 101.503906 103.65625 100.457031 104.136719 99.269531 105.136719 L 99.269531 114.703125 L 95.785156 114.703125 Z M 95.785156 101.726562 "/>
<path style=" stroke:none;fill-rule:evenodd;fill:rgb(100%,100%,100%);fill-opacity:1;" d="M 89.585938 113.535156 C 88.285156 114.40625 86.757812 114.867188 85.191406 114.859375 C 82.703125 114.859375 81.234375 113.203125 81.234375 110.988281 C 81.234375 108 83.980469 106.417969 89.632812 105.78125 L 89.632812 105.039062 C 89.632812 104.070312 88.898438 103.507812 87.539062 103.507812 C 86.273438 103.472656 85.066406 104.042969 84.289062 105.039062 L 81.921875 103.6875 C 83.167969 101.949219 85.0625 101.082031 87.609375 101.085938 C 91.085938 101.085938 93.019531 102.589844 93.019531 105.039062 L 93.019531 114.707031 L 89.90625 114.707031 Z M 84.667969 110.734375 C 84.671875 111.628906 85.234375 112.464844 86.25 112.464844 C 87.355469 112.464844 88.425781 112.003906 89.503906 111.058594 L 89.503906 107.902344 C 86.226562 108.316406 84.671875 109.15625 84.667969 110.734375 Z M 84.667969 110.734375 "/>
<path style=" stroke:none;fill-rule:nonzero;fill:rgb(100%,100%,100%);fill-opacity:1;" d="M 72.796875 101.367188 L 76.132812 101.367188 L 76.132812 102.933594 C 77.050781 101.839844 78.382812 101.171875 79.808594 101.09375 C 79.960938 101.089844 80.109375 101.097656 80.261719 101.117188 L 80.261719 104.410156 L 80.089844 104.410156 C 78.5625 104.410156 76.894531 104.644531 76.371094 105.832031 L 76.371094 114.703125 L 72.796875 114.703125 Z M 72.796875 101.367188 "/>
<path style=" stroke:none;fill-rule:evenodd;fill:rgb(100%,100%,100%);fill-opacity:1;" d="M 63.792969 115.09375 C 60.320312 115.09375 57.195312 112.882812 57.195312 108.054688 C 57.195312 103.226562 60.320312 101.027344 63.792969 101.027344 C 67.261719 101.027344 70.390625 103.242188 70.390625 108.066406 C 70.390625 112.890625 67.261719 115.09375 63.792969 115.09375 Z M 63.792969 103.984375 C 61.171875 103.984375 60.683594 106.351562 60.683594 108.042969 C 60.683594 109.734375 61.171875 112.117188 63.792969 112.117188 C 66.410156 112.117188 66.898438 109.75 66.898438 108.042969 C 66.898438 106.335938 66.410156 103.984375 63.792969 103.984375 Z M 63.792969 103.984375 "/>
</g>
</svg>
